<?xml version="1.0" encoding="utf-8"?>
<!-- Generator: Adobe Illustrator 24.2.1, SVG Export Plug-In . SVG Version: 6.00 Build 0)  -->
<svg version="1.1" id="Layer_1" xmlns="http://www.w3.org/2000/svg" xmlns:xlink="http://www.w3.org/1999/xlink" x="0px" y="0px"
	 viewBox="0 0 1080 1080" style="enable-background:new 0 0 1080 1080;" xml:space="preserve">
<style type="text/css">
	.st0{opacity:0.98;}
</style>
<g>
	<g>
		<path d="M243.11,313.01c77.58,0.85,94.88,77.49,83.23,145.66c-11.68,68.14-55.11,144.07-132.63,143.24
			c-77.63-0.84-94.9-77.48-83.23-145.62C122.1,388.13,165.58,312.16,243.11,313.01z M205.72,531.54
			c28.87,0.31,39.67-56.32,42.65-73.74c2.98-17.41,11.55-74.07-17.28-74.4c-28.84-0.3-39.69,56.37-42.68,73.72
			C185.46,474.56,176.91,531.2,205.72,531.54z"/>
		<path d="M386.65,343.73l89.94,0.97c44.96,0.49,94.14,20.32,83.77,80.71c-5.33,31.49-30.12,55.71-62.39,55.35l-0.11,0.76
			c36.95,3.36,52.93,26.53,46.53,63.94c-5.95,34.42-34.64,79.41-102.84,78.66l-102.74-1.13L386.65,343.73z M431.98,563.53
			c16.9,0.19,33.25-7.8,36.49-26.7c3.24-18.89-10.02-26.8-27.65-27l-5.96-0.07l-9.23,53.72L431.98,563.53z M448.99,453.14
			c15.76,0.18,31.48-5.96,34.58-24.1c2.86-16.69-7.61-23.84-23.29-24.01l-7.49-0.1l-8.24,48.16L448.99,453.14z"/>
		<path d="M607.63,316.25l142,1.56l-11.28,65.94l-65.59-0.71l-6.65,38.88l58.86,0.66l-11.28,65.9l-58.82-0.63l-7.3,42.6l65.6,0.72
			l-11.3,65.9l-142.02-1.54L607.63,316.25z"/>
		<path d="M787.02,620.53l20.29-118.52l-42.2-161.53l79.47,0.87l11.44,86.59l0.73,0.01l41.4-86l79.08,0.86l-93.49,160.03
			l-20.27,118.5L787.02,620.53z"/>
	</g>
	<g>
		<path class="st0" d="M283.77,767.85c-5.85,0-11.2-2.17-15.21-6.19c-5.6-5.6-5.6-11.45-5.6-24.07c0-12.62,0-18.47,5.6-24.07
			c4.01-4.01,9.36-6.19,15.21-6.19c10.7,0,18.64,6.52,20.65,17.72h-6.52c-1.59-7.27-6.69-12.04-14.13-12.04
			c-3.93,0-7.69,1.5-10.28,4.18c-3.76,3.85-4.18,7.94-4.18,20.4c0,12.45,0.42,16.55,4.18,20.4c2.59,2.67,6.35,4.18,10.28,4.18
			c7.44,0,12.71-4.76,14.29-12.04h6.35C302.5,761.33,294.39,767.85,283.77,767.85z"/>
		<path class="st0" d="M336.01,767.35v-59.51h6.35v53.83h30.43v5.68H336.01z"/>
		<path class="st0" d="M432.2,761.66c-4.01,4.01-9.28,6.19-15.21,6.19s-11.2-2.17-15.21-6.19c-5.6-5.6-5.6-11.45-5.6-24.07
			c0-12.62,0-18.47,5.6-24.07c4.01-4.01,9.28-6.19,15.21-6.19s11.2,2.17,15.21,6.19c5.6,5.6,5.6,11.45,5.6,24.07
			C437.8,750.21,437.8,756.06,432.2,761.66z M427.26,717.28c-2.59-2.67-6.35-4.26-10.28-4.26c-3.93,0-7.69,1.59-10.28,4.26
			c-3.76,3.84-4.18,7.86-4.18,20.31c0,12.45,0.42,16.47,4.18,20.31c2.59,2.67,6.35,4.26,10.28,4.26c3.93,0,7.69-1.59,10.28-4.26
			c3.76-3.85,4.18-7.86,4.18-20.31C431.44,725.14,431.03,721.12,427.26,717.28z"/>
		<path class="st0" d="M486.1,713.52v53.83h-6.35v-53.83h-17.22v-5.68h40.79v5.68H486.1z"/>
		<path class="st0" d="M566.59,767.35v-27.17h-28.25v27.17h-6.35v-59.51h6.35v26.66h28.25v-26.66h6.35v59.51H566.59z"/>
		<path class="st0" d="M607.71,767.35v-59.51h6.35v59.51H607.71z"/>
		<path class="st0" d="M686.77,767.35l-31.59-47.73v47.73h-6.35v-59.51h6.02l31.6,47.56v-47.56h6.35v59.51H686.77z"/>
		<path class="st0" d="M761.99,761c-4.18,4.51-9.78,6.85-15.88,6.85c-5.85,0-11.2-2.17-15.21-6.19c-5.6-5.6-5.6-11.45-5.6-24.07
			c0-12.62,0-18.47,5.6-24.07c4.01-4.01,9.28-6.19,15.21-6.19c11.37,0,19.06,7.36,20.81,17.8h-6.35
			c-1.67-7.52-7.02-12.12-14.46-12.12c-3.93,0-7.69,1.59-10.28,4.26c-3.76,3.84-4.18,7.86-4.18,20.31c0,12.45,0.42,16.55,4.18,20.4
			c2.59,2.67,6.35,4.18,10.28,4.18c4.35,0,8.53-1.76,11.28-5.1c2.43-2.93,3.34-6.19,3.34-10.78v-4.51h-14.63v-5.6h20.98v9.44
			C767.09,752.47,765.67,757.07,761.99,761z"/>
	</g>
</g>
</svg>
