<?xml version="1.0" encoding="utf-8"?>
<!-- Generator: Adobe Illustrator 24.2.1, SVG Export Plug-In . SVG Version: 6.00 Build 0)  -->
<svg version="1.1" id="Layer_1" xmlns="http://www.w3.org/2000/svg" xmlns:xlink="http://www.w3.org/1999/xlink" x="0px" y="0px"
	 viewBox="0 0 1080 1080" style="enable-background:new 0 0 1080 1080;" xml:space="preserve">
<style type="text/css">
	.st0{fill:#FFFFFF;}
</style>
<g>
	<g>
		<g>
			<g>
				<polygon points="344.07,647.69 378.51,628.31 151.46,464.21 421.21,465.33 396.62,433.47 51.83,433.47 343.79,647.84 				"/>
				<polygon points="751.43,709.91 741.44,678.87 741.2,678.74 697.43,655.5 783.58,919.21 557.49,759.65 557.49,801.47 
					557.49,801.49 847.07,1006.9 847.02,1006.74 849.48,1008.49 				"/>
				<polygon points="452.26,456.33 541.84,184.55 628.94,448.98 656.02,418.6 656.03,418.59 542.32,71.51 425.62,426.44 
					425.62,426.45 				"/>
				<polygon points="930.3,465.32 706.73,630.06 740.94,648.7 741.78,649.16 1028.17,433.86 679.85,431.5 650.63,464.87 				"/>
				<polygon points="389.72,653.14 347.25,675.94 346.05,676.58 323.51,750.99 242.1,1008.49 528.93,800.46 528.93,800.45 
					528.93,757.89 308.94,916.07 				"/>
				<path d="M578.39,359.59c-12.98-37.81-25.21-74.65-37.47-111.97c-13.98,38.99-25.1,77.99-38.36,116.73l1.68,1.69
					c10.59,0.97,19.25,4.83,27.92,7.48C552.62,374.49,561.77,369.45,578.39,359.59z"/>
				<path d="M526.85,393.74c-10.1,0.82-21.91,2.23-32.99,2.39c-3.37,2.89-2.89,7.94-4.59,12.03c15.41,3.62,34.44,1.95,49.59,8.22
					c16.86-4.07,36.12-10.81,53.94-12.24l-2.41-8.67c-6.5-1.46-15.16-0.97-22.62-1.23L526.85,393.74z"/>
				<path d="M599.53,422.68c-1.69-1.68-0.71-5.53-3.37-5.78c-13.49,5.77-25.76-2.66-38.04,4.56
					C571.6,424.59,586.05,428.21,599.53,422.68z"/>
				<path d="M483.01,427.9c13.71,2.41,25.52,0.98,38.52-3.58l-2.89-2.17l-22.39-0.74C491.19,420.2,480.36,419.94,483.01,427.9z"/>
				<path d="M620.72,756.13c1.68,2.16,2.15,6.01,5.28,8.66c10.11,5.79,18.06,12.78,27.2,19.04c5.3,3.85,11.78,11.09,18.28,9.89
					c-1.42-22.15-18.99-37.1-26.43-60.21c-1.44-3.13-5.06-6.98-8.66-6.27c-8.91,6.5-9.65,17.33-14.46,25.99
					C621.44,753,622.9,756.36,620.72,756.13z"/>
				<path d="M419.19,799.31l43.35-34.15c0.73-4.34,0.25-7.95-1.19-11.56c-3.85-7.71-5.76-20.22-15.63-21.91
					c-4.09,0.96-4.58,4.81-7.47,7.45c-6.27,17.09-16.88,34.9-24.83,51.99c-0.73,2.16-1.45,5.77,0.47,7.45
					C415.09,800.04,417.74,800.04,419.19,799.31z"/>
				<path d="M715.5,845.03c9.39,7.7,21.66,14.94,32.25,23.13c-6.49-21.19-16.59-46.47-22.34-66.94
					C723.48,817.58,719.85,829.86,715.5,845.03z"/>
				<path d="M371.74,844.3c-2.89-14.21-8.42-28.18-8.65-42.86c-6.03,19.01-13.75,43.09-19.78,63.54L371.74,844.3z"/>
				<path d="M593.65,717.81c9.28,0.66,12.1-2.13,17.23-4.3c6.74-5.06,13.87-11.81,15.63-21.43c5.27-28.89-21.89-42.95-32.31-64.02
					c-3.38-5.05-5.24-8.02-6.92-15.3c-1.68-5.59,1.82-9.35,6.9-9.02c9.89-1.05,30.01,38.67,52.99,40.89
					c7.77,0.01,15.76-9.34-0.49-19.02c-5.71-3.34-11.3-10.61-12.98-16.2c-1.14-3.02-1.94-10.67,4.91-13.63l0,0
					c0,0,1.66-0.71,1.51-5.08c-0.01-0.17,0.01-0.31-0.01-0.48c-0.37-4.44-3.29-7.71-4.6-8.98c-5.94-2.35-11.53-5.48-16.49-9.33
					c-0.05-1.22,0.52-2.91,0.52-4.24l2.73-3.53l1.77-2.3c16.61-13.91,13.27,13.81,26.93,14.74c0.93,0.06,1.92,0,3-0.2
					c2.58,0,4.78-1.74,6.93-3.69c3.79-3.44,7.4-7.55,12.65-4.01c3.45,3.97,3.19,11.38,1.34,15.89c-3.01,0.71-6.07,1.16-9.17,1.39
					c-2.31,0.18-4.64,0.23-6.95,0.15c-1.19,0.59-4.95,1.14-5.35,3.77c-0.05,0.34-0.07,0.69-0.03,1.05c0.3,2.68,1.11,4.41,1.92,5.55
					c0.97,0.55,1.94,1.17,2.91,1.91c7.36,7.09,16.15,23.1,16.15,23.1l191.77-137.56H706.77l-11.07,5.85
					c-17.25,8.87-33.45,11.1-51.99,14c-17.84,2.14-29.85,5.32-45.73,9.66c-21.87,7.02-25.26,27.71-30.53,44.56
					c-7.21,30.59-8.63,71.63,15.23,95.94c9.65,12.5,21.34,21.44,19.72,28.72c-1.12,5.03-5.75,8.34-12.31,6.15
					c-8.39-2.8-12.48-8.94-22.99-8.86c-14.08,0.09-20.3,6.96-26.9,7.02c-6.59,0.06-12.82-6.93-26.9-7.02
					c-10.51-0.08-14.6,6.07-22.98,8.86c-6.57,2.19-11.19-1.12-12.31-6.15c-1.63-7.28,10.07-16.22,19.72-28.72
					c23.84-24.31,22.43-65.35,15.24-95.94c-5.28-16.85-8.67-37.53-30.55-44.56c-15.88-4.34-27.9-7.52-45.73-9.66
					c-18.53-2.9-34.73-5.13-51.99-14l-11.06-5.85H214.24l191.79,137.56c0,0,8.78-16.02,16.15-23.1c0.36-0.28,0.73-0.52,1.1-0.77
					c0.65-0.59,1.45-1.59,2.06-3.18c0.37-0.94,0.68-2.09,0.84-3.5c0.35-3.16-4.09-4.04-5.5-4.77c-1.17,0-2.32-0.04-3.48-0.09
					c-3.52-0.2-7-0.68-10.41-1.49c-1.86-4.51-2.11-11.92,1.32-15.89c8.22-5.55,12.45,7.7,19.6,7.7
					c17.21,3.19,12.2-29.39,29.94-14.54l4.49,5.82c-0.01,0.42,0.15,0.79,0.33,1.17c0.36,0.78,0.83,1.61,0.2,3.07
					c-3.1,2.4-6.46,4.53-10,6.36c-3.2,1.67-6.55,3.09-10,4.26c-0.95,1.13-2.04,2.75-2.73,4.72c-0.33,0.93-0.59,1.89-0.68,2.96
					c-0.27,3.24,0.08,3.24,0.82,4.22c0.57,0.76,1.11,1.08,1.11,1.08c7.52,2.73,6.67,10.78,5.5,13.88
					c-1.68,5.59-7.28,12.87-12.99,16.2c-16.25,9.68-8.27,19.03-0.48,19.02c22.98-2.23,43.1-41.94,52.98-40.89
					c5.08-0.33,8.58,3.43,6.89,9.02c-1.67,7.28-3.54,10.25-6.91,15.3c-10.42,21.06-37.58,35.13-32.3,64.02
					c1.74,9.62,8.89,16.37,15.62,21.43c5.14,2.17,7.93,4.96,17.22,4.3c13.86-0.99,11.97-18.35,25.38-18.35
					c16.7,0.02,13.58,16.36,28.09,16.36c14.52,0,11.38-16.34,28.1-16.36C581.69,699.46,579.8,716.82,593.65,717.81z"/>
			</g>
		</g>
		<g>
			<path class="st0" d="M677.25,566.65l-0.15-0.18l-0.19-0.12c-6.37-4.31-11.1,0.08-14.91,3.61c-2.52,2.32-4.89,4.52-7.48,4.53
				c-7.8,1.41-10.76-4.31-13.9-10.37c-2.36-4.54-4.57-8.82-8.81-9.67c-3.16-0.64-6.7,0.8-11.13,4.51c-0.26,0.27-5.18,6.64-5.18,6.64
				l-0.28,0.36l-0.07,0.67l-0.28,2l-0.42,3.66l0.76,0.33c17.7,13.7,41.67,19.13,62.6,14.18l0.85-0.2l0.33-0.8
				C681.34,580.08,681.33,571.35,677.25,566.65z"/>
		</g>
		<g>
			<path class="st0" d="M404.03,566.65l0.16-0.18l0.18-0.12c6.37-4.31,11.11,0.08,14.91,3.61c2.52,2.32,4.9,4.52,7.48,4.53
				c7.8,1.41,10.77-4.31,13.91-10.37c2.35-4.54,4.57-8.82,8.81-9.67c3.16-0.64,6.69,0.8,11.13,4.51c0.25,0.27,5.18,6.64,5.18,6.64
				l0.28,0.36l0.07,0.67l0.27,2l0.42,3.66l-0.76,0.33c-17.7,13.7-41.67,19.13-62.6,14.18l-0.85-0.2l-0.33-0.8
				C399.94,580.08,399.95,571.35,404.03,566.65z"/>
		</g>
	</g>
</g>
</svg>
