<?xml version="1.0" encoding="utf-8"?>
<!-- Generator: Adobe Illustrator 24.2.1, SVG Export Plug-In . SVG Version: 6.00 Build 0)  -->
<svg version="1.1" id="Layer_1" xmlns="http://www.w3.org/2000/svg" xmlns:xlink="http://www.w3.org/1999/xlink" x="0px" y="0px"
	 viewBox="0 0 2234.65 1716.37" style="enable-background:new 0 0 2234.65 1716.37;" xml:space="preserve">
<style type="text/css">
	.st0{fill:none;}
</style>
<g>
	<rect y="0" class="st0" width="2234.65" height="1716.37"/>
	<g>
		<path d="M512.78,647.34c11.38-4.86,21.5-11.63,30.08-20.18c8.52-8.57,15.31-18.7,20.12-30.09c4.82-11.4,7.26-23.78,7.26-36.69
			c0-12.97-2.45-25.3-7.26-36.75c-4.83-11.36-11.62-21.49-20.15-30.08c-8.55-8.5-18.67-15.3-30.04-20.12
			c-11.49-4.85-23.83-7.28-36.74-7.28h-1.9v50.21h1.9c5.92,0,11.62,1.17,16.86,3.45c5.32,2.36,10.05,5.61,14.11,9.62
			c4,3.98,7.2,8.72,9.53,14.06c2.34,5.26,3.52,10.96,3.52,16.9c0,5.88-1.18,11.63-3.52,16.86c-2.31,5.37-5.53,10.09-9.55,14.07
			c-4.03,4.02-8.76,7.23-14.07,9.57c-5.26,2.29-10.96,3.47-16.88,3.47h-1.9v50.27h1.9C488.93,654.61,501.29,652.12,512.78,647.34z"
			/>
		<path d="M492.92,381.96c5.3,2.36,10.03,5.6,14.09,9.63c4.1,4.12,7.22,8.71,9.53,14.01c2.34,5.38,3.52,11.19,3.52,17.35v3.94h50.19
			v-3.94c0-13.22-2.45-25.7-7.26-37.15c-4.83-11.42-11.6-21.51-20.15-30.07c-8.52-8.51-18.65-15.38-30.03-20.33
			c-11.51-4.96-23.86-7.52-36.76-7.52h-1.9v50.63h1.9C482,378.51,487.7,379.69,492.92,381.96z"/>
		<path d="M395.24,626.75c8.65,8.6,18.76,15.39,30.07,20.29c11.39,5.02,23.75,7.58,36.77,7.58h0.08l-0.08-50.64
			c-6.13,0-11.66-1.15-16.93-3.55c-5.29-2.28-10-5.51-14.06-9.48c-4.01-4.1-7.25-8.85-9.57-14.15c-2.32-5.3-3.46-11.11-3.46-17.31
			v-3.89h-50.22v3.89c0,13.3,2.44,25.77,7.27,37.16C379.96,608.12,386.76,618.29,395.24,626.75z"/>
		<path d="M395.24,488.95c8.63,8.56,18.48,15.14,30.11,20.12c11.41,4.83,23.8,7.29,36.72,7.29h0.08l-0.08-50.21
			c-5.96,0-11.66-1.18-16.88-3.46c-5.38-2.4-10.11-5.64-14.11-9.66c-3.99-3.97-7.2-8.67-9.57-14.06
			c-2.35-5.37-3.46-10.91-3.46-16.87c0-5.9,1.15-11.56,3.44-16.86c2.42-5.39,5.63-10.13,9.59-14.05c4.04-4.07,8.77-7.28,14.07-9.62
			c5.22-2.3,10.9-3.51,16.92-3.51h0.08l-0.08-50.17c-12.93,0-25.29,2.55-36.77,7.52c-11.31,4.9-21.43,11.74-30.09,20.36
			c-8.45,8.43-15.24,18.48-20.09,29.83c-4.84,11.22-7.3,23.52-7.3,36.51c0,12.99,2.44,25.34,7.27,36.76
			C379.96,470.32,386.76,480.41,395.24,488.95z"/>
		<rect x="658.71" y="390.48" width="50.25" height="264.14"/>
		<path d="M833.35,627.16c8.5,8.55,18.59,15.32,29.86,20.16c11.32,4.81,23.61,7.29,36.51,7.29h2.88v-50.27h-2.88
			c-5.93,0-11.6-1.18-16.88-3.47c-5.36-2.27-9.99-5.53-13.8-9.5c-3.9-3.99-7.05-8.76-9.44-14.13c-2.34-5.29-3.51-10.98-3.51-16.86
			V329.55h-50.62v230.83c0,12.91,2.49,25.29,7.51,36.73C817.93,608.47,824.76,618.59,833.35,627.16z"/>
		<rect x="965.63" y="329.55" width="50.38" height="325.06"/>
		<rect x="914.61" y="606.07" width="38.99" height="48.54"/>
		<rect x="1037.91" y="328.74" width="49.53" height="325.87"/>
		<rect x="1099.44" y="606.07" width="40.22" height="48.54"/>
		<path d="M1248.42,560.38V422.95c0-12.99-2.55-25.24-7.58-36.52c-5-11.39-11.82-21.38-20.3-29.82
			c-8.55-8.55-18.63-15.43-30.04-20.36c-11.45-5-23.8-7.51-36.77-7.51h-2.08v50.63h2.08c6.26,0,11.92,1.13,17.34,3.48
			c5.32,2.37,9.95,5.44,13.85,9.36c3.94,3.97,7.1,8.64,9.39,13.88c2.29,5.21,3.46,10.92,3.46,16.86v137.43
			c0,6.33-1.12,11.99-3.48,17.29c-2.29,5.28-5.43,9.92-9.33,13.85c-3.97,3.91-8.66,7.08-13.89,9.35
			c-5.37,2.36-11.04,3.47-17.34,3.47h-2.08v50.27h2.08c12.88,0,25.23-2.49,36.72-7.27c11.38-4.83,21.51-11.57,30.08-20.18
			c8.5-8.46,15.32-18.55,20.3-30.05C1245.87,585.71,1248.42,573.33,1248.42,560.38z"/>
		<rect x="1099.44" y="328.74" width="40.22" height="48.89"/>
		<rect x="1270.26" y="328.74" width="50.7" height="325.87"/>
		<path d="M1666.46,428c-8.4-19.66-20.17-37.16-34.91-52.1c-14.67-14.84-32.18-26.68-51.96-35.2c-19.52-8.43-40.7-12.76-62.99-12.82
			v50.17c15.21,0.15,29.78,3.18,43.19,9.06c13.65,6.05,25.73,14.22,35.9,24.39c10.2,10.28,18.44,22.42,24.41,36.15
			c5.93,13.61,8.96,28.42,8.96,44.05c0,15.55-3.03,30.36-9,44.01c-6.06,13.85-14.24,26.01-24.37,36.12
			c-10.21,10.22-22.27,18.37-35.88,24.46c-13.44,5.83-27.96,8.87-43.21,8.98v50.62c22.24-0.07,43.47-4.48,62.99-13.04
			c19.74-8.69,37.22-20.5,51.92-35.18c14.73-14.71,26.51-32.24,34.99-52.14c8.47-19.87,12.77-41.36,12.77-63.81
			C1679.27,469.15,1674.97,447.8,1666.46,428z"/>
		<path d="M1426.47,571.8c-10.19-10.17-18.31-22.31-24.23-36.09c-5.82-13.6-8.78-28.46-8.78-44.01c0-15.63,2.96-30.44,8.83-44.09
			c5.84-13.73,13.98-25.87,24.23-36.1c10.13-10.17,22.19-18.38,35.84-24.39c13.16-5.77,27.35-8.77,42.24-8.97v-50.21
			c-21.98,0.22-42.87,4.49-62.11,12.78c-19.78,8.57-37.27,20.4-51.89,35.2c-14.74,14.92-26.49,32.44-34.93,52.1
			c-8.5,19.65-12.81,41.09-12.81,63.69c0,22.56,4.31,44.01,12.81,63.81c8.44,19.9,20.21,37.43,34.93,52.14
			c14.71,14.66,32.13,26.49,51.89,35.18c19.28,8.45,40.15,12.82,62.11,12.97v-50.64c-14.88-0.17-29.13-3.19-42.24-8.89
			C1448.7,590.19,1436.67,582.04,1426.47,571.8z"/>
		<rect x="367.82" y="696.26" width="49.74" height="324.62"/>
		<rect x="525.35" y="696.26" width="50.49" height="324.62"/>
		<polygon points="513.33,782.2 429.58,699.92 429.58,770.66 513.33,852.91 		"/>
		<rect x="766.43" y="697.11" width="50.23" height="325.1"/>
		<path d="M683.53,968.49c-5.35-2.37-9.88-5.5-13.83-9.54c-4.04-4.21-7.12-8.84-9.4-14.23c-2.33-5.17-3.51-10.82-3.51-16.79V697.11
			h-50.65v230.83c0,12.89,2.53,25.27,7.54,36.74c4.96,11.4,11.82,21.53,20.3,30.06c8.6,8.61,18.39,15.17,29.88,20.15
			c11.33,4.89,23.61,7.34,36.52,7.34h1.22v-50.25h-1.22C694.41,971.97,688.75,970.79,683.53,968.49z"/>
		<rect x="713.61" y="973.59" width="40.8" height="48.63"/>
		<rect x="1123.13" y="801.63" width="50.2" height="221.79"/>
		<rect x="847.05" y="801.63" width="50.2" height="221.79"/>
		<rect x="984.92" y="801.63" width="50.59" height="221.79"/>
		<path d="M972,759.77c3.96,3.97,7.06,8.48,9.39,13.84c2.16,4.79,3.24,10.05,3.44,16.03h50.7c0.13-5.68,1.27-11.03,3.42-15.99
			c2.34-5.3,5.46-9.83,9.48-13.88c3.73-3.83,8.4-6.95,13.81-9.34c10.43-4.58,23.76-4.58,34.23,0c5.28,2.31,9.91,5.51,13.76,9.58
			c3.88,3.97,7.03,8.67,9.44,14.06c2.03,4.7,3.16,9.94,3.38,15.58h50.25c-0.22-12.63-2.64-24.57-7.23-35.47
			c-4.85-11.33-11.62-21.47-20.17-30.05c-8.49-8.52-18.63-15.34-30.04-20.32c-11.25-4.93-23.98-7.51-36.77-7.51
			c-14.2,0-28.11,3.17-40.28,9.07c-10.51,5.15-19.95,11.97-28.04,20.38l-0.76,0.78l-0.76-0.82c-7.81-8.34-17.13-15.18-27.68-20.33
			c-12.13-5.9-26.11-9.07-40.31-9.07c-12.76,0-25.49,2.58-36.68,7.51c-11.4,4.94-21.53,11.79-30.15,20.32
			c-8.61,8.69-15.34,18.78-20.08,30.05c-4.63,11.02-7.08,22.91-7.27,35.47h50.25c0.19-5.68,1.35-10.9,3.38-15.58
			c2.38-5.39,5.58-10.13,9.48-14.14c3.85-3.98,8.48-7.19,13.76-9.49c10.32-4.58,23.8-4.58,34.23,0
			C963.56,752.78,968.08,755.79,972,759.77z"/>
		<rect x="1203.71" y="696.26" width="49.36" height="326.31"/>
		<path d="M1408.82,753.76c-5.02-11.42-11.86-21.56-20.34-30.05c-8.61-8.61-18.65-15.38-29.82-20.08
			c-11.3-4.87-23.61-7.38-36.53-7.38h-57v50.22h57c5.97,0,11.51,1.15,16.87,3.5c5.37,2.36,10.04,5.51,13.85,9.38
			c3.99,3.92,7.01,8.44,9.39,13.85c2.29,5.3,3.47,11.15,3.47,17.31c0,5.92-1.17,11.6-3.47,16.86c-2.4,5.48-5.45,9.97-9.44,13.88
			c-3.81,3.88-8.39,6.99-13.59,9.43c-5.27,2.26-10.86,3.46-17.09,3.46h-57v50.65h57.43c6.01,0,11.51,1.1,16.61,3.43
			c5.2,2.32,9.78,5.47,13.68,9.38c3.94,3.92,7.01,8.39,9.39,13.85c2.29,5.3,3.47,11,3.47,16.92c0,6.16-1.17,12.01-3.47,17.31
			c-2.38,5.4-5.45,9.94-9.44,13.84c-3.78,3.83-8.44,6.99-13.81,9.36c-5.32,2.35-10.86,3.46-16.87,3.46h-57v50.64h57
			c12.98,0,25.28-2.5,36.53-7.48c11.12-4.91,21.14-11.73,29.82-20.34c8.48-8.44,15.32-18.55,20.34-30.04
			c5-11.46,7.53-23.78,7.53-36.76c0-14.42-3.05-28.01-9.07-40.33c-5.15-10.56-12.01-19.88-20.25-27.61l-0.8-0.77l0.8-0.79
			c8.24-7.76,15.1-17.14,20.28-27.86c5.99-12.47,9.04-26.07,9.04-40.49C1416.35,777.52,1413.82,765.2,1408.82,753.76z"/>
		<rect x="1446.73" y="971.69" width="199.93" height="49.66"/>
		<rect x="1446.73" y="696.26" width="199.93" height="49.71"/>
		<rect x="1446.73" y="758.02" width="50.66" height="201.66"/>
		<rect x="1510.53" y="834.15" width="77.6" height="50.17"/>
		<polygon points="1727.61,885.83 1727.61,833.49 1727.61,747.54 1727.61,696.26 1677.02,696.26 1677.02,1022.22 1727.61,1022.22 		
			"/>
		<polygon points="1808.63,897.02 1740.05,897.02 1828.39,1022.22 1898.24,1022.22 		"/>
		<path d="M1858.41,857.29c8.61-8.57,15.36-18.74,20.17-30.07c4.83-11.4,7.27-23.78,7.27-36.7c0-12.93-2.45-25.3-7.27-36.71
			c-4.8-11.34-11.56-21.5-20.17-30.09c-8.62-8.57-18.74-15.38-30.08-20.12c-11.38-4.83-23.76-7.34-36.74-7.34h-51.74v50.22h51.74
			c6.1,0,11.64,1.15,16.93,3.5c5.41,2.4,9.99,5.51,14.06,9.62c4.12,4.08,7.32,8.82,9.57,14.1c2.36,5.17,3.49,10.71,3.49,16.82
			c0,6.02-1.17,11.75-3.53,16.9c-2.25,5.3-5.45,10-9.52,14.06c-4.07,4.09-8.83,7.28-14.06,9.62c-5.28,2.26-10.98,3.48-16.93,3.48
			h-51.74v49.74h61.48c9.39-0.93,18.48-3.25,27-6.85C1839.71,872.66,1849.87,865.83,1858.41,857.29z"/>
		<path d="M625.12,1110.98c-14.67-14.8-32.14-26.66-51.93-35.18c-19.33-8.31-40.39-12.6-62.52-12.77v50.16
			c15.15,0.22,29.49,3.25,42.68,9.09c13.68,5.96,25.77,14.15,35.98,24.36c10.12,10.13,18.31,22.29,24.36,36.1
			c5.98,13.76,8.98,28.56,8.98,44.06c0,15.49-3,30.33-8.95,43.97c-6.03,13.76-14.25,25.97-24.44,36.18
			c-10.16,10.17-22.25,18.39-35.93,24.41c-13.19,5.8-27.53,8.78-42.68,9V1391c22.1-0.17,43.14-4.54,62.56-13.02
			c19.75-8.7,37.22-20.52,51.86-35.19c14.66-14.62,26.43-32.2,35.02-52.15c8.48-19.91,12.81-41.38,12.81-63.84
			c0-22.55-4.33-43.97-12.81-63.71C651.52,1143.25,639.75,1125.74,625.12,1110.98z"/>
		<path d="M384.21,1110.98c-14.68,14.81-26.42,32.33-34.97,52.11c-8.52,19.69-12.83,41.16-12.83,63.71
			c0,22.5,4.32,43.97,12.83,63.88c8.51,19.86,20.29,37.44,34.97,52.11c14.75,14.71,32.19,26.53,51.87,35.19
			c19.44,8.52,40.51,12.85,62.63,13.02v-50.64c-15.15-0.22-29.52-3.2-42.72-9c-13.65-5.98-25.74-14.2-35.91-24.41
			c-10.23-10.21-18.36-22.42-24.21-36.18c-5.83-13.59-8.77-28.34-8.77-43.97c0-15.63,2.94-30.38,8.8-44.06
			c5.85-13.81,13.99-25.97,24.19-36.1c10.17-10.21,22.26-18.41,35.91-24.36c13.2-5.86,27.58-8.87,42.72-9.09v-50.16
			c-22.17,0.17-43.22,4.46-62.63,12.77C416.4,1084.32,398.96,1096.16,384.21,1110.98z"/>
		<rect x="703.29" y="1063.87" width="49.65" height="324.57"/>
		<rect x="860.9" y="1063.87" width="50.36" height="324.57"/>
		<polygon points="848.87,1149.78 764.95,1067.4 764.95,1138.16 848.87,1220.52 		"/>
		<rect x="941.57" y="1063.87" width="199.95" height="50.2"/>
		<rect x="941.57" y="1338.28" width="199.95" height="50.59"/>
		<rect x="941.57" y="1126.31" width="50.64" height="198.61"/>
		<rect x="1004.38" y="1201.69" width="78.59" height="50.21"/>
		<rect x="583.69" y="328.74" width="199.92" height="49.73"/>
	</g>
</g>
</svg>
