<svg id="Layer_1" data-name="Layer 1" xmlns="http://www.w3.org/2000/svg" viewBox="0 0 800 430"><defs><style>.cls-1{fill:#b3b3b3;}</style></defs><path class="cls-1" d="M344,281.08V250.54h20.12v5.32H350V263H362v5.32H350v7.42h14.16v5.32Z"/><path class="cls-1" d="M382.65,281.34c-4.63,0-8.15-1-11.15-4l3.86-3.87c1.93,1.94,4.54,2.58,7.37,2.58,3.52,0,5.41-1.33,5.41-3.78a3.37,3.37,0,0,0-.95-2.57,4.46,4.46,0,0,0-2.7-1.07l-3.69-.52a10.3,10.3,0,0,1-5.91-2.53,8.06,8.06,0,0,1-2.19-6c0-5.45,4-9.27,10.63-9.27,4.21,0,7.25,1,9.87,3.56l-3.77,3.73a8.53,8.53,0,0,0-6.27-2.1c-3.17,0-4.72,1.76-4.72,3.86a2.94,2.94,0,0,0,.91,2.19,5.2,5.2,0,0,0,2.83,1.2l3.6.52c2.79.38,4.55,1.15,5.83,2.36a8.53,8.53,0,0,1,2.36,6.47C394,278,389,281.34,382.65,281.34Z"/><path class="cls-1" d="M415.56,255.86v25.22h-6V255.86h-8v-5.32h21.92v5.32Z"/><path class="cls-1" d="M432,281.08v-6.35h6.4v6.35Z"/><path class="cls-1" d="M470.52,281.08V256.54L464.3,262v-6l6.22-5.4h5.58v30.54Z"/><path class="cls-1" d="M506.17,267.87l-6.48,13.21h-6L500,268.47a6,6,0,0,1-2.27.39c-4.12,0-8.06-3.39-8.06-9.06,0-6,4.11-9.52,9.52-9.52s9.52,3.39,9.52,9.44C508.7,262.51,507.54,265.08,506.17,267.87Zm-7-12.57c-2.27,0-3.95,1.63-3.95,4.46s1.59,4.46,3.95,4.46,3.94-1.63,3.94-4.46S501.45,255.3,499.18,255.3Z"/><path class="cls-1" d="M533.76,267.87l-6.48,13.21h-6l6.34-12.61a6,6,0,0,1-2.27.39c-4.12,0-8.06-3.39-8.06-9.06,0-6,4.11-9.52,9.52-9.52s9.52,3.39,9.52,9.44C536.29,262.51,535.13,265.08,533.76,267.87Zm-7-12.57c-2.27,0-3.95,1.63-3.95,4.46s1.59,4.46,3.95,4.46,3.94-1.63,3.94-4.46S529,255.3,526.77,255.3Z"/><path class="cls-1" d="M561.14,278.85a9.24,9.24,0,0,1-6.74,2.49,9.54,9.54,0,0,1-6.82-2.45,9.3,9.3,0,0,1-2.49-6.35h5.58c.3,2.41,1.41,3.78,3.73,3.78a3.59,3.59,0,0,0,2.66-1c1-1,1.2-2.62,1.2-4.54,0-3.52-1-5.5-3.73-5.5a3.56,3.56,0,0,0-3.69,2.49h-5.1V250.54h17.41v5H550.8v6.56a7,7,0,0,1,4.59-1.54,7.82,7.82,0,0,1,5.7,2.06c2.41,2.4,2.75,5.27,2.75,8.15C563.84,274.22,563.37,276.62,561.14,278.85Z"/><path class="cls-1" d="M350,310.27v7.5H362v5.32H350v12.4h-6V305h20.12v5.32Z"/><path class="cls-1" d="M391.23,332.4a11.86,11.86,0,0,1-16.52,0c-3.09-3.09-3-6.9-3-12.18s-.09-9.09,3-12.18a11.86,11.86,0,0,1,16.52,0c3.09,3.09,3,6.9,3,12.18S394.32,329.31,391.23,332.4Zm-4.42-20.76A5,5,0,0,0,383,310a5,5,0,0,0-3.86,1.63c-1.16,1.29-1.46,2.7-1.46,8.58s.3,7.29,1.46,8.58a5,5,0,0,0,3.86,1.63,5,5,0,0,0,3.82-1.63c1.16-1.29,1.5-2.7,1.5-8.58S388,312.93,386.81,311.64Z"/><path class="cls-1" d="M415.43,335.75c-6.27,0-11.24-4.25-11.24-10.73V305h6v19.86c0,3.52,2.06,5.62,5.28,5.62s5.32-2.1,5.32-5.62V305h5.92V325C426.67,331.5,421.69,335.75,415.43,335.75Z"/><path class="cls-1" d="M455.67,335.49l-12.09-18.74v18.74h-6V305h5.32l12.1,18.7V305h6v30.54Z"/><path class="cls-1" d="M491.5,332.57a11.12,11.12,0,0,1-8.07,2.92h-11V305h11a11.12,11.12,0,0,1,8.07,2.92c3.43,3.43,3.09,7.63,3.09,12.22S494.93,329.14,491.5,332.57Zm-4.16-20.42a5.33,5.33,0,0,0-4.46-1.88h-4.51v19.9h4.51a5.31,5.31,0,0,0,4.46-1.89c1.11-1.37,1.28-3.56,1.28-8.19S488.45,313.53,487.34,312.15Z"/><path class="cls-1" d="M505,335.49V305h20.11v5.32H510.94v7.16H523v5.32H510.94v7.42h14.15v5.32Z"/><path class="cls-1" d="M554.31,332.57a11.1,11.1,0,0,1-8.06,2.92h-11V305h11a11.1,11.1,0,0,1,8.06,2.92c3.43,3.43,3.09,7.63,3.09,12.22S557.74,329.14,554.31,332.57Zm-4.16-20.42a5.33,5.33,0,0,0-4.46-1.88h-4.5v19.9h4.5a5.31,5.31,0,0,0,4.46-1.89c1.12-1.37,1.29-3.56,1.29-8.19S551.27,313.53,550.15,312.15Z"/><path class="cls-1" d="M594.82,335.49H582V305H594.3c6,0,9.44,3.35,9.44,8.58a7,7,0,0,1-3.78,6.3,7.1,7.1,0,0,1,4.21,6.87C604.17,332.4,600.26,335.49,594.82,335.49Zm-1-25.22H588v7h5.83c2.53,0,3.95-1.41,3.95-3.51S596.36,310.27,593.83,310.27Zm.39,12.39H588v7.51h6.22a3.61,3.61,0,0,0,4-3.77C598.21,324.34,596.92,322.66,594.22,322.66Z"/><path class="cls-1" d="M626.22,323v12.53H620.3V323l-9.18-18h6.48l5.71,12.31L628.93,305h6.47Z"/><path class="cls-1" d="M352.4,390.16c-4.63,0-8.15-1-11.15-4l3.86-3.86c1.93,1.94,4.54,2.58,7.37,2.58,3.52,0,5.41-1.33,5.41-3.78a3.37,3.37,0,0,0-.95-2.57,4.46,4.46,0,0,0-2.7-1.07l-3.69-.52a10.3,10.3,0,0,1-5.91-2.53,8.06,8.06,0,0,1-2.19-6c0-5.45,4-9.27,10.63-9.27,4.21,0,7.25,1,9.87,3.56l-3.77,3.73a8.53,8.53,0,0,0-6.27-2.1c-3.17,0-4.72,1.76-4.72,3.86a2.94,2.94,0,0,0,.91,2.19,5.2,5.2,0,0,0,2.83,1.2l3.6.52c2.79.38,4.55,1.15,5.83,2.35a8.57,8.57,0,0,1,2.36,6.48C363.72,386.81,358.79,390.16,352.4,390.16Z"/><path class="cls-1" d="M389.94,389.9V377.12H379.6V389.9h-6V359.36h6v12.48h10.34V359.36h6V389.9Z"/><path class="cls-1" d="M407.32,389.9V359.36h20.12v5.32H413.28v7.16h12.06v5.32H413.28v7.42h14.16v5.32Z"/><path class="cls-1" d="M449.41,378.4h-5.88v11.5h-6V359.36h11.84c6.3,0,10.08,4.33,10.08,9.52S455.71,378.4,449.41,378.4Zm-.3-13.72h-5.58V373h5.58c2.7,0,4.42-1.67,4.42-4.16A4.07,4.07,0,0,0,449.11,364.68Z"/><path class="cls-1" d="M484,389.9l-1.8-5.4H471.37l-1.84,5.4h-6.22l11.11-30.54h4.68l11.15,30.54Zm-7.12-21.53-3.86,11.11h7.59Z"/><path class="cls-1" d="M514.54,389.9l-6-12.18h-4.28V389.9h-6V359.36h12c6.22,0,9.91,4.25,9.91,9.35a8.22,8.22,0,0,1-5.58,8l6.83,13.17Zm-4.63-25.22h-5.62v8.06h5.62c2.61,0,4.33-1.67,4.33-4S512.52,364.68,509.91,364.68Z"/><path class="cls-1" d="M549.76,387a11.11,11.11,0,0,1-8.06,2.92h-11V359.36h11a11.11,11.11,0,0,1,8.06,2.92c3.43,3.43,3.09,7.63,3.09,12.22S553.19,383.55,549.76,387Zm-4.16-20.42a5.33,5.33,0,0,0-4.46-1.88h-4.51v19.9h4.51a5.31,5.31,0,0,0,4.46-1.89c1.11-1.37,1.29-3.56,1.29-8.19S546.71,367.94,545.6,366.56Z"/><path class="cls-1" d="M583.44,364.68v7.5H595.5v5.32H583.44v12.4h-6V359.36H597.6v5.32Z"/><path class="cls-1" d="M621.89,389.9l-1.81-5.4H609.23l-1.84,5.4h-6.22l11.11-30.54H617L628.1,389.9Zm-7.13-21.53-3.86,11.11h7.6Z"/><path class="cls-1" d="M636.18,389.9V359.36h6V389.9Z"/><path class="cls-1" d="M669.77,389.9l-6-12.18h-4.29V389.9h-6V359.36h12c6.22,0,9.91,4.25,9.91,9.35a8.22,8.22,0,0,1-5.58,8l6.82,13.17Zm-4.64-25.22h-5.61v8.06h5.61c2.62,0,4.34-1.67,4.34-4S667.75,364.68,665.13,364.68Z"/><path class="cls-1" d="M685.91,389.9V359.36H706v5.32H691.87v7.16h12v5.32h-12v7.42H706v5.32Z"/><path class="cls-1" d="M727.82,377.37V389.9H721.9V377.37l-9.18-18h6.48l5.7,12.31,5.62-12.31H737Z"/><path d="M74.1,388.36c-3-2.07-3.85-4.92-3.83-8.58.13-30.07.07-60.15.07-90.22,0-6,1.86-7.86,7.78-7.89,3.76,0,7.53.14,11.28,0s6,1.64,7.43,5c5.64,13.33,11.36,26.62,17.06,39.92a50.39,50.39,0,0,0,4.49,8.71c.06-1,.16-2.06.16-3.09q0-21.24,0-42.48c0-6.09,2-8,8.13-8,3.26,0,6.51-.06,9.77,0,4.48.08,6.79,2.29,6.79,6.66,0,31.08,0,62.15.08,93.23,0,3.18-1.84,4.9-3.76,6.79H120c-1-1.84-2.82-2.95-3.67-5-4.77-11.38-9.66-22.71-14.55-34-1.93-4.48-4-8.92-6-13.38l-.78.2v3.62c0,13.14-.1,26.29.06,39.43.05,3.71-.8,6.76-3.69,9.14Z"/><path d="M108,40.79c2.91.77,5.85,1.42,8.72,2.33,12.51,4,18.18,13.44,19,24.94.66,9.74,1.26,13.34-11.9,12.61a16.89,16.89,0,0,0-2.25,0c-8.3.64-11.57-1.68-10.68-9.86a8,8,0,0,0-7.89-9c-4.6.1-7.41,3.75-7.85,9-.42,5,1.67,8.22,5.72,10.79,7.11,4.53,13.93,9.52,21.14,13.87,7.86,4.75,13.37,10.67,14.22,20.38.77,8.71.46,17.25-3.6,25-4.52,8.65-12.65,12.58-22,13.24-7,.5-14.11.76-21.15-1.23-10.74-3-19-13-19.1-24.18q-.06-5.27,0-10.53a5.64,5.64,0,0,1,5.75-6c4.38-.13,8.77-.11,13.15,0,3.2.08,5.64,2.87,5.82,6.51.11,2.25,0,4.51.06,6.76.16,4.86,3.46,7.89,8.43,7.81,4.81-.07,6.82-2.87,7.56-7.8,1.25-8.42-4-12-10-15.67-7.16-4.41-14.31-8.86-21.22-13.66-6.25-4.35-8.73-11.2-9.37-18.33-.89-9.91.05-19.61,7.11-27.68,4.79-5.47,11-7.7,17.86-8.72.9-.14,2,.52,2.64-.75Z"/><path d="M154.6,388.36c-3.84-2.45-4-5.7-3.06-9.93,6.47-29.67,12.66-59.4,19-89.1,1.37-6.47,2.87-7.67,9.35-7.67s13.27,0,19.9,0c5.14,0,7,1.53,8.16,6.84q3.38,15.5,6.65,31c4.14,19.61,8.14,39.25,12.44,58.82.87,4,.69,7.23-2.44,10H206.51a16,16,0,0,1-4.19-8.87c-.42-3-1.33-5.85-1.64-8.82-.25-2.33-1.34-2.91-3.43-2.85-3.63.09-7.27,0-10.9,0-7.91,0-7.82,0-9.42,7.73-.93,4.53-1,9.47-5,12.79ZM196,346.88l-6.22-31.38-.95-.06c-2.09,10.42-4.19,20.83-6.33,31.44Z"/><path d="M236.6,388.36c-2.85-2.7-3.08-6.09-3.07-9.82.12-29.71.06-59.42.07-89.13,0-5.93,1.83-7.73,7.86-7.75,2.88,0,5.77,0,8.65,0,5.86,0,8.06,2.25,8.06,8.24q0,35.55,0,71.08c0,5.66-.6,4.88,5.07,4.93,5.39.05,10.8.24,16.17-.07,3.78-.22,6.75.77,9.08,3.71,0,5.51-.09,11,.06,16.54.05,1.89-.43,2.32-2.31,2.31C269.71,388.33,253.16,388.36,236.6,388.36Z"/><path d="M288.51,265.74c-2.17,3.15-5.13,4.23-8.93,3.81a78.41,78.41,0,0,0-8.26-.05c-6.13,0-7.62-1.53-7.63-7.81q0-13.53,0-27.06,0-31.77,0-63.53c0-6.06,2-8,8.07-8.15,2.25,0,4.51.08,6.76,0,4.05-.2,7.57.7,10,4.26Z"/><path d="M230.71,213.73q-3.87,18.81-7.74,37.61c-.93,4.51-1.93,9-2.93,13.51-.73,3.31-2.81,4.71-6.21,4.67-10.92-.12-11.17,1.73-13.92-11.57q-4.2-20.32-8.32-40.69c-.12-.58,0-1.3-1.12-1.62v4.13q0,21.06,0,42.12c0,5.74-1.92,7.6-7.62,7.61-3.13,0-6.27,0-9.4,0-4-.06-6-1.87-6.5-5.76a16.87,16.87,0,0,1-.06-2.25q0-45.14,0-90.27c0-6,2.1-8.13,8.13-8.24s11.78-.09,17.67,0c4.75.07,6.75,1.76,7.73,6.49,3.36,16.11,6.66,32.23,10.6,48.48,1-4.83,2.08-9.65,3.07-14.49,2.32-11.36,4.58-22.73,6.92-34.09.89-4.34,2.73-6.17,7.11-6.32,6.51-.23,13-.24,19.55,0,4.69.14,6.89,2.72,6.89,7.56q0,45.88,0,91.77c0,5.18-2.09,7.14-7.33,7.16h-8.65c-5.64,0-7.26-1.64-7.27-7.42q0-22.38,0-44.76v-3.53Z"/><path d="M271.68,95.24c10.09,4,13.05,8.3,13.07,18.63,0,5.51-.26,11,.06,16.54.61,10.48-8.54,18.46-16.84,20.12a40.81,40.81,0,0,1-8.19.77c-11-.07-22.06,0-33.09,0-6.1,0-8.08-2-8.08-8.1q0-45.31,0-90.63c0-5.91,2-7.91,7.82-7.92,11.4,0,22.82.25,34.22-.08,10.9-.31,22.34,8.74,21.14,21.21a67,67,0,0,0,0,9.4C282.14,83.62,280.74,91.21,271.68,95.24Zm-28.36,23.91c.37,3.07-1.61,8,.72,10.73,1.94,2.3,6.83.49,10.41.7a6.06,6.06,0,0,0,1.12-.1c2.7-.4,4.34-1.89,4.38-4.7.07-5,.15-10,0-15-.1-3-1.73-4.82-5-4.75-2.87,0-5.75.12-8.61,0-2.23-.13-3.15.53-3,2.9C243.46,112,243.32,115.15,243.32,119.15Zm0-43.47v5.25c0,5.81,0,5.81,5.62,5.81,9.72,0,9.79,0,9.71-9.85-.1-10.76,2.64-12.4-12.48-12-.25,0-.5,0-.75,0-1.68-.21-2.16.62-2.12,2.18C243.38,69.93,243.33,72.81,243.32,75.68Z"/><path d="M143.45,89.28q0-18.6,0-37.21c0-5.39,2.09-7.43,7.5-7.46,3.39,0,6.77,0,10.15,0,4.93.05,7,2.12,7,7.11q0,35.91,0,71.81c0,5.77,3,9.65,7.46,10,5.33.46,9.17-3.42,9.18-9.38q0-35.34,0-70.68c0-7.36,1.58-8.91,9.05-8.91,3,0,6,0,9,0,4.22.08,6.61,2.29,6.62,6.44,0,25.31.34,50.63-.15,75.94-.3,15.76-11.81,25.4-27.27,27.22-9.06,1.07-18,.13-26-5.09-8.25-5.43-12.41-13.24-12.56-23C143.31,113.84,143.45,101.56,143.45,89.28Z"/><path d="M70.34,216.25q0-22.75,0-45.5c0-5.63,2-7.63,7.65-7.79,3-.09,6-.11,9,0,5.94.22,8,2.41,8,8.38q0,22.74,0,45.49c0,9,.09,18-.05,27.06,0,2.63.73,3.45,3.38,3.37,5.88-.19,11.78-.06,17.67,0,7.57,0,9.1,1.5,9.09,8.89,0,2.25,0,4.51,0,6.76,0,4.79-1.82,6.62-6.51,6.63q-20.87,0-41.74,0c-4.68,0-6.52-1.86-6.53-6.62Q70.32,239.56,70.34,216.25Z"/><path d="M133.54,216.22q0-22.74,0-45.49c0-5.67,1.89-7.61,7.64-7.77,3-.09,6-.1,9,0,6,.22,8,2.4,8,8.37,0,7.39,0,14.78,0,22.17q0,33.83,0,67.66c0,6.74-1.62,8.33-8.42,8.34h-9c-5.65,0-7.25-1.64-7.25-7.42Q133.53,239.15,133.54,216.22Z"/></svg>