<?xml version="1.0" standalone="no"?>
<!DOCTYPE svg PUBLIC "-//W3C//DTD SVG 20010904//EN"
 "http://www.w3.org/TR/2001/REC-SVG-20010904/DTD/svg10.dtd">
<svg version="1.0" xmlns="http://www.w3.org/2000/svg"
 width="512.000000pt" height="512.000000pt" viewBox="0 0 512.000000 512.000000"
 preserveAspectRatio="xMidYMid meet">
<metadata>
Created by potrace 1.11, written by Peter Selinger 2001-2013
</metadata>
<g transform="translate(0.000000,512.000000) scale(0.100000,-0.100000)"
fill="#000000" stroke="none">
<path d="M1338 4985 c-164 -34 -280 -155 -306 -316 -7 -49 -7 -203 1 -239 32
-144 63 -174 367 -363 126 -78 159 -106 184 -154 27 -54 15 -152 -23 -187 -41
-37 -147 -21 -173 27 -6 11 -12 59 -15 106 -3 80 -6 88 -33 114 -29 26 -35 27
-134 27 -122 0 -161 -11 -173 -48 -5 -15 -8 -80 -7 -144 2 -101 5 -124 27
-172 48 -105 146 -185 267 -217 40 -11 281 -15 320 -6 129 31 200 80 258 177
48 82 72 261 50 382 -20 109 -85 193 -207 268 -157 96 -327 217 -348 248 -16
25 -21 45 -19 81 6 87 57 143 120 134 72 -10 97 -46 100 -143 4 -106 15 -114
162 -118 179 -6 200 12 190 156 -12 170 -82 287 -210 346 -116 54 -261 69
-398 41z"/>
<path d="M2114 4943 c-12 -2 -30 -13 -40 -25 -18 -19 -19 -49 -19 -602 0 -537
1 -585 18 -637 38 -113 137 -207 266 -250 86 -30 268 -32 346 -4 175 62 270
163 291 310 10 69 11 1118 1 1155 -12 46 -52 61 -160 59 -122 -2 -145 -7 -165
-37 -15 -23 -17 -80 -18 -561 -1 -295 -2 -547 -3 -559 0 -13 -16 -39 -35 -58
-26 -26 -42 -34 -70 -34 -51 0 -85 19 -106 60 -17 34 -18 72 -19 576 0 332 -4
549 -10 565 -5 15 -22 31 -38 36 -28 10 -196 14 -239 6z"/>
<path d="M3174 4942 c-12 -2 -30 -12 -40 -24 -18 -19 -19 -54 -22 -701 -1
-449 1 -692 8 -713 6 -17 22 -36 36 -43 17 -7 120 -11 323 -11 331 0 372 6
446 64 55 43 73 64 97 116 19 40 22 64 23 220 1 249 -15 295 -127 359 l-48 27
40 30 c43 32 74 81 85 134 4 19 8 102 7 183 0 139 -1 151 -26 202 -31 61 -80
109 -145 139 -43 19 -64 21 -341 21 -162 0 -305 -1 -316 -3z m491 -305 c19
-27 13 -243 -7 -264 -23 -22 -175 -24 -189 -3 -5 8 -8 76 -7 150 l3 135 30 5
c55 9 156 -4 170 -23z m-9 -560 c33 -11 40 -43 39 -176 -1 -117 -2 -124 -24
-142 -13 -11 -40 -19 -60 -20 -20 0 -47 -2 -61 -4 -39 -6 -78 5 -85 23 -4 9
-7 82 -6 162 1 107 5 148 15 155 15 12 149 13 182 2z"/>
<path d="M1097 3279 c-45 -7 -55 -15 -65 -55 -5 -16 -8 -336 -7 -711 l0 -683
22 -21 c21 -21 27 -22 356 -22 420 -1 395 -11 391 164 -2 94 -13 125 -50 139
-13 5 -97 10 -187 11 -97 0 -167 5 -174 11 -10 8 -13 128 -13 555 0 587 0 592
-52 609 -30 9 -173 12 -221 3z"/>
<path d="M2005 3284 c-5 -1 -23 -5 -38 -8 -55 -13 -54 -9 -53 -759 l1 -689 24
-19 c18 -15 40 -19 97 -20 166 -3 172 -2 199 26 l25 24 0 683 c0 376 -3 693
-6 705 -11 41 -50 56 -149 58 -49 1 -94 1 -100 -1z"/>
<path d="M2464 3282 c-18 -2 -42 -14 -55 -28 l-24 -26 -1 -676 c-1 -372 3
-691 8 -708 4 -17 18 -36 31 -43 25 -13 207 -19 242 -8 48 15 49 30 50 394 0
188 3 345 7 348 4 5 14 -34 34 -135 41 -207 101 -493 113 -536 17 -64 36 -75
128 -76 90 -1 118 11 132 57 8 24 92 417 115 535 3 14 13 63 23 110 l18 85 5
-372 c6 -453 -8 -416 158 -416 118 1 147 10 162 49 13 34 12 1354 -1 1393 -17
48 -57 58 -237 56 -132 -1 -161 -4 -184 -19 -15 -10 -30 -25 -33 -35 -3 -9
-32 -149 -66 -311 -33 -162 -65 -319 -71 -348 -12 -57 -14 -59 -22 -22 -2 14
-23 106 -45 205 -22 99 -54 245 -71 324 -34 159 -40 175 -73 193 -20 11 -260
18 -343 10z"/>
<path d="M3812 3278 c-68 -18 -65 15 -65 -744 0 -716 0 -726 42 -739 9 -2 66
-5 126 -6 86 -2 117 1 143 15 17 9 33 22 33 29 1 6 2 324 3 705 1 682 1 693
-19 711 -11 10 -31 22 -45 27 -34 10 -179 12 -218 2z"/>
<path d="M1084 1613 c-12 -2 -30 -13 -40 -24 -17 -19 -18 -58 -19 -701 0 -693
2 -737 37 -759 7 -5 70 -9 140 -9 l128 0 17 27 c16 24 19 64 23 368 l5 340 41
-85 c23 -47 83 -181 133 -299 126 -293 130 -303 154 -329 19 -21 28 -22 164
-22 l143 0 20 33 c19 31 20 52 20 719 l0 687 -23 27 c-22 26 -28 27 -128 29
-57 1 -119 -2 -136 -7 -60 -16 -61 -27 -62 -398 -1 -183 -3 -335 -5 -337 -5
-6 -49 89 -183 402 -70 163 -135 301 -148 315 -24 23 -31 24 -142 25 -65 1
-128 0 -139 -2z"/>
<path d="M2493 1605 c-16 -7 -35 -25 -41 -41 -10 -26 -55 -218 -66 -287 -3
-15 -7 -35 -10 -45 -3 -9 -7 -28 -10 -42 -2 -14 -18 -88 -35 -165 -16 -77 -32
-151 -35 -165 -11 -56 -106 -500 -121 -565 -18 -77 -15 -128 11 -156 15 -17
33 -19 145 -19 125 0 128 1 148 26 11 14 25 51 32 82 20 99 39 161 51 169 16
9 263 12 279 3 6 -4 19 -50 30 -101 10 -52 28 -113 40 -136 l22 -43 132 0
c201 0 198 -8 112 395 -31 143 -58 271 -61 285 -5 28 -84 400 -147 690 -14 67
-33 105 -56 115 -32 14 -386 14 -420 0z m218 -482 c0 -10 2 -25 4 -33 5 -17 6
-24 46 -223 16 -82 29 -153 29 -158 0 -5 -42 -9 -93 -9 l-93 0 33 163 c19 89
35 175 38 190 8 57 17 87 26 87 5 0 9 -8 10 -17z"/>
<path d="M3368 1606 c-12 -6 -28 -21 -34 -34 -8 -15 -11 -223 -10 -710 1 -642
2 -690 19 -715 l18 -27 367 2 367 3 1 120 c0 66 -2 127 -4 136 -2 8 -17 24
-34 34 -27 15 -53 18 -192 17 -89 -1 -169 1 -178 4 -17 5 -18 40 -18 554 0
323 -4 559 -10 574 -5 14 -19 30 -32 37 -30 17 -229 20 -260 5z"/>
</g>
</svg>
