<svg id="Layer_1" data-name="Layer 1" xmlns="http://www.w3.org/2000/svg" viewBox="0 0 17.88 17.88"><path d="M8.94,1.61c2.38,0,2.67,0,3.61,0,2.42.11,3.55,1.26,3.66,3.67.05.94.06,1.22.06,3.61s0,2.67-.06,3.61C16.1,15,15,16.1,12.55,16.21c-.94.05-1.22.06-3.61.06s-2.67,0-3.61-.06C2.9,16.1,1.77,15,1.66,12.55c0-.94,0-1.22,0-3.61s0-2.67,0-3.61C1.77,2.92,2.9,1.77,5.33,1.66,6.27,1.62,6.55,1.61,8.94,1.61ZM8.94,0C6.51,0,6.21,0,5.25.05,2,.2.2,2,.05,5.25c0,1,0,1.26,0,3.69s0,2.73.05,3.68c.15,3.25,2,5.05,5.2,5.2,1,.05,1.26.06,3.69.06s2.73,0,3.68-.06c3.25-.15,5.06-2,5.2-5.2.05-.95.06-1.25.06-3.68s0-2.73-.06-3.69c-.14-3.24-2-5-5.2-5.2C11.67,0,11.37,0,8.94,0Zm0,4.35a4.59,4.59,0,1,0,4.59,4.59A4.58,4.58,0,0,0,8.94,4.35Zm0,7.57a3,3,0,1,1,3-3A3,3,0,0,1,8.94,11.92Zm4.77-8.83a1.08,1.08,0,1,0,1.07,1.08A1.08,1.08,0,0,0,13.71,3.09Z"/></svg>