<svg id="Layer_1" data-name="Layer 1" xmlns="http://www.w3.org/2000/svg" viewBox="0 0 18.02 18.02"><path d="M9,0a9,9,0,1,0,9,9A9,9,0,0,0,9,0Zm4.16,14.29a.6.6,0,0,1-.54.32.66.66,0,0,1-.3-.07,9.8,9.8,0,0,0-7.64-.78.62.62,0,0,1-.78-.41c-.1-.32.08-1,.41-1.12a11.33,11.33,0,0,1,3.28-.49,11,11,0,0,1,5.33,1.37,1.08,1.08,0,0,1,.24,1.18Zm1.15-3.39c-.13.25-.38.65-.64.65a.81.81,0,0,1-.34-.08,12.33,12.33,0,0,0-5.74-1.4,12.21,12.21,0,0,0-3.3.44A.72.72,0,0,1,3.42,10a1,1,0,0,1,.5-1.15A14.25,14.25,0,0,1,7.6,8.36,13.9,13.9,0,0,1,14,9.93a.71.71,0,0,1,.31,1Zm.47-2.72a.94.94,0,0,1-.36-.08A15.08,15.08,0,0,0,7.6,6.49a15.44,15.44,0,0,0-3.71.45.83.83,0,0,1-1-.6.93.93,0,0,1,.6-1.09,17.19,17.19,0,0,1,4.11-.5,16.78,16.78,0,0,1,7.56,1.78.83.83,0,0,1,.38,1.11.93.93,0,0,1-.75.54Zm0,0"/></svg>